<mxfile host="app.diagrams.net" agent="Mozilla/5.0 (Windows NT 10.0; Win64; x64) AppleWebKit/537.36 (KHTML, like Gecko) Chrome/136.0.0.0 Safari/537.36 Edg/136.0.0.0" version="26.2.14">
  <diagram id="gVjWQn9lj6yqhWpQtXVb" name="Страница — 1">
    <mxGraphModel dx="858" dy="488" grid="1" gridSize="10" guides="1" tooltips="1" connect="1" arrows="1" fold="1" page="1" pageScale="1" pageWidth="827" pageHeight="1169" math="0" shadow="0">
      <root>
        <mxCell id="0" />
        <mxCell id="1" parent="0" />
        <mxCell id="bG9_J4yWtp9kluon5Y3U-1" value="" style="group" vertex="1" connectable="0" parent="1">
          <mxGeometry x="210" y="200" width="90" height="60" as="geometry" />
        </mxCell>
        <mxCell id="bG9_J4yWtp9kluon5Y3U-2" value="" style="rounded=0;whiteSpace=wrap;html=1;" vertex="1" parent="bG9_J4yWtp9kluon5Y3U-1">
          <mxGeometry width="90" height="60" as="geometry" />
        </mxCell>
        <mxCell id="bG9_J4yWtp9kluon5Y3U-3" value="&lt;h6&gt;&lt;font face=&quot;Tahoma&quot;&gt;&lt;span style=&quot;font-size: 6px; font-weight: 400;&quot;&gt;Ввод данных об оборудовании&lt;/span&gt;&lt;/font&gt;&lt;/h6&gt;" style="text;html=1;align=center;verticalAlign=middle;whiteSpace=wrap;rounded=0;" vertex="1" parent="bG9_J4yWtp9kluon5Y3U-1">
          <mxGeometry x="5" width="80" height="50" as="geometry" />
        </mxCell>
        <mxCell id="bG9_J4yWtp9kluon5Y3U-4" value="1.1" style="rounded=0;whiteSpace=wrap;html=1;fontSize=8;align=left;" vertex="1" parent="bG9_J4yWtp9kluon5Y3U-1">
          <mxGeometry y="50" width="45" height="10" as="geometry" />
        </mxCell>
        <mxCell id="bG9_J4yWtp9kluon5Y3U-5" value="" style="rounded=0;whiteSpace=wrap;html=1;" vertex="1" parent="bG9_J4yWtp9kluon5Y3U-1">
          <mxGeometry x="45" y="50" width="45" height="10" as="geometry" />
        </mxCell>
        <mxCell id="bG9_J4yWtp9kluon5Y3U-6" value="&lt;font style=&quot;font-size: 6px;&quot;&gt;добавление оборудования&lt;/font&gt;" style="rounded=0;whiteSpace=wrap;html=1;" vertex="1" parent="1">
          <mxGeometry x="80" y="200" width="90" height="60" as="geometry" />
        </mxCell>
        <mxCell id="bG9_J4yWtp9kluon5Y3U-7" value="" style="endArrow=classic;html=1;rounded=0;exitX=1;exitY=0.5;exitDx=0;exitDy=0;entryX=0;entryY=0.5;entryDx=0;entryDy=0;" edge="1" parent="1" source="bG9_J4yWtp9kluon5Y3U-6" target="bG9_J4yWtp9kluon5Y3U-2">
          <mxGeometry width="50" height="50" relative="1" as="geometry">
            <mxPoint x="250" y="330" as="sourcePoint" />
            <mxPoint x="300" y="280" as="targetPoint" />
          </mxGeometry>
        </mxCell>
        <mxCell id="bG9_J4yWtp9kluon5Y3U-8" value="" style="group" vertex="1" connectable="0" parent="1">
          <mxGeometry x="413" y="270" width="90" height="60" as="geometry" />
        </mxCell>
        <mxCell id="bG9_J4yWtp9kluon5Y3U-9" value="" style="rounded=0;whiteSpace=wrap;html=1;" vertex="1" parent="bG9_J4yWtp9kluon5Y3U-8">
          <mxGeometry width="90" height="60" as="geometry" />
        </mxCell>
        <mxCell id="bG9_J4yWtp9kluon5Y3U-10" value="&lt;h6&gt;&lt;font face=&quot;Tahoma&quot;&gt;&lt;span style=&quot;font-size: 6px; font-weight: 400;&quot;&gt;Проверка уникальности инвентарного номера&lt;/span&gt;&lt;/font&gt;&lt;/h6&gt;" style="text;html=1;align=center;verticalAlign=middle;whiteSpace=wrap;rounded=0;" vertex="1" parent="bG9_J4yWtp9kluon5Y3U-8">
          <mxGeometry x="5" width="80" height="50" as="geometry" />
        </mxCell>
        <mxCell id="bG9_J4yWtp9kluon5Y3U-11" value="1.2" style="rounded=0;whiteSpace=wrap;html=1;fontSize=8;align=left;" vertex="1" parent="bG9_J4yWtp9kluon5Y3U-8">
          <mxGeometry y="50" width="45" height="10" as="geometry" />
        </mxCell>
        <mxCell id="bG9_J4yWtp9kluon5Y3U-12" value="" style="rounded=0;whiteSpace=wrap;html=1;" vertex="1" parent="bG9_J4yWtp9kluon5Y3U-8">
          <mxGeometry x="45" y="50" width="45" height="10" as="geometry" />
        </mxCell>
        <mxCell id="bG9_J4yWtp9kluon5Y3U-13" value="" style="group" vertex="1" connectable="0" parent="1">
          <mxGeometry x="340" y="215" width="30" height="30" as="geometry" />
        </mxCell>
        <mxCell id="bG9_J4yWtp9kluon5Y3U-14" value="" style="rounded=0;whiteSpace=wrap;html=1;" vertex="1" parent="bG9_J4yWtp9kluon5Y3U-13">
          <mxGeometry width="30" height="30" as="geometry" />
        </mxCell>
        <mxCell id="bG9_J4yWtp9kluon5Y3U-15" value="" style="rounded=0;whiteSpace=wrap;html=1;" vertex="1" parent="bG9_J4yWtp9kluon5Y3U-13">
          <mxGeometry width="7" height="30" as="geometry" />
        </mxCell>
        <mxCell id="bG9_J4yWtp9kluon5Y3U-16" value="&amp;amp;" style="text;html=1;align=center;verticalAlign=middle;whiteSpace=wrap;rounded=0;" vertex="1" parent="bG9_J4yWtp9kluon5Y3U-13">
          <mxGeometry x="7" width="20" height="30" as="geometry" />
        </mxCell>
        <mxCell id="bG9_J4yWtp9kluon5Y3U-17" value="" style="endArrow=classic;html=1;rounded=0;" edge="1" parent="1">
          <mxGeometry width="50" height="50" relative="1" as="geometry">
            <mxPoint x="300" y="229.83" as="sourcePoint" />
            <mxPoint x="340" y="229.83" as="targetPoint" />
          </mxGeometry>
        </mxCell>
        <mxCell id="bG9_J4yWtp9kluon5Y3U-18" value="" style="endArrow=classic;html=1;rounded=0;entryX=0;entryY=0.5;entryDx=0;entryDy=0;" edge="1" parent="1" target="bG9_J4yWtp9kluon5Y3U-21">
          <mxGeometry width="50" height="50" relative="1" as="geometry">
            <mxPoint x="370" y="220" as="sourcePoint" />
            <mxPoint x="410" y="160" as="targetPoint" />
            <Array as="points">
              <mxPoint x="390" y="220" />
              <mxPoint x="390" y="160" />
            </Array>
          </mxGeometry>
        </mxCell>
        <mxCell id="bG9_J4yWtp9kluon5Y3U-19" value="" style="endArrow=classic;html=1;rounded=0;entryX=0;entryY=0.5;entryDx=0;entryDy=0;" edge="1" parent="1" target="bG9_J4yWtp9kluon5Y3U-9">
          <mxGeometry width="50" height="50" relative="1" as="geometry">
            <mxPoint x="370" y="240" as="sourcePoint" />
            <mxPoint x="410" y="300" as="targetPoint" />
            <Array as="points">
              <mxPoint x="390" y="240" />
              <mxPoint x="390" y="300" />
            </Array>
          </mxGeometry>
        </mxCell>
        <mxCell id="bG9_J4yWtp9kluon5Y3U-20" value="" style="group" vertex="1" connectable="0" parent="1">
          <mxGeometry x="413" y="130" width="90" height="60" as="geometry" />
        </mxCell>
        <mxCell id="bG9_J4yWtp9kluon5Y3U-21" value="" style="rounded=0;whiteSpace=wrap;html=1;" vertex="1" parent="bG9_J4yWtp9kluon5Y3U-20">
          <mxGeometry width="90" height="60" as="geometry" />
        </mxCell>
        <mxCell id="bG9_J4yWtp9kluon5Y3U-22" value="&lt;h6&gt;&lt;font face=&quot;Tahoma&quot;&gt;&lt;span style=&quot;font-size: 6px; font-weight: 400;&quot;&gt;Валидация данных&lt;/span&gt;&lt;/font&gt;&lt;/h6&gt;" style="text;html=1;align=center;verticalAlign=middle;whiteSpace=wrap;rounded=0;" vertex="1" parent="bG9_J4yWtp9kluon5Y3U-20">
          <mxGeometry x="5" width="80" height="50" as="geometry" />
        </mxCell>
        <mxCell id="bG9_J4yWtp9kluon5Y3U-23" value="1.3" style="rounded=0;whiteSpace=wrap;html=1;fontSize=8;align=left;" vertex="1" parent="bG9_J4yWtp9kluon5Y3U-20">
          <mxGeometry y="50" width="45" height="10" as="geometry" />
        </mxCell>
        <mxCell id="bG9_J4yWtp9kluon5Y3U-24" value="" style="rounded=0;whiteSpace=wrap;html=1;" vertex="1" parent="bG9_J4yWtp9kluon5Y3U-20">
          <mxGeometry x="45" y="50" width="45" height="10" as="geometry" />
        </mxCell>
        <mxCell id="bG9_J4yWtp9kluon5Y3U-37" value="" style="endArrow=classic;html=1;rounded=0;exitX=1;exitY=0.5;exitDx=0;exitDy=0;" edge="1" parent="1">
          <mxGeometry width="50" height="50" relative="1" as="geometry">
            <mxPoint x="503" y="160" as="sourcePoint" />
            <mxPoint x="542" y="220" as="targetPoint" />
            <Array as="points">
              <mxPoint x="522" y="160" />
              <mxPoint x="522" y="220" />
            </Array>
          </mxGeometry>
        </mxCell>
        <mxCell id="bG9_J4yWtp9kluon5Y3U-38" value="" style="endArrow=classic;html=1;rounded=0;exitX=1;exitY=0.5;exitDx=0;exitDy=0;" edge="1" parent="1">
          <mxGeometry width="50" height="50" relative="1" as="geometry">
            <mxPoint x="503" y="300" as="sourcePoint" />
            <mxPoint x="542" y="240" as="targetPoint" />
            <Array as="points">
              <mxPoint x="522" y="300" />
              <mxPoint x="522" y="240" />
            </Array>
          </mxGeometry>
        </mxCell>
        <mxCell id="bG9_J4yWtp9kluon5Y3U-39" value="" style="group" vertex="1" connectable="0" parent="1">
          <mxGeometry x="542" y="215" width="30" height="30" as="geometry" />
        </mxCell>
        <mxCell id="bG9_J4yWtp9kluon5Y3U-40" value="" style="rounded=0;whiteSpace=wrap;html=1;" vertex="1" parent="bG9_J4yWtp9kluon5Y3U-39">
          <mxGeometry width="30" height="30" as="geometry" />
        </mxCell>
        <mxCell id="bG9_J4yWtp9kluon5Y3U-41" value="" style="rounded=0;whiteSpace=wrap;html=1;" vertex="1" parent="bG9_J4yWtp9kluon5Y3U-39">
          <mxGeometry width="7" height="30" as="geometry" />
        </mxCell>
        <mxCell id="bG9_J4yWtp9kluon5Y3U-42" value="&amp;amp;" style="text;html=1;align=center;verticalAlign=middle;whiteSpace=wrap;rounded=0;" vertex="1" parent="bG9_J4yWtp9kluon5Y3U-39">
          <mxGeometry x="7" width="20" height="30" as="geometry" />
        </mxCell>
        <mxCell id="bG9_J4yWtp9kluon5Y3U-43" value="J1" style="text;html=1;align=center;verticalAlign=middle;whiteSpace=wrap;rounded=0;" vertex="1" parent="1">
          <mxGeometry x="327" y="245" width="60" height="30" as="geometry" />
        </mxCell>
        <mxCell id="bG9_J4yWtp9kluon5Y3U-44" value="J2" style="text;html=1;align=center;verticalAlign=middle;whiteSpace=wrap;rounded=0;" vertex="1" parent="1">
          <mxGeometry x="527" y="245" width="60" height="30" as="geometry" />
        </mxCell>
        <mxCell id="bG9_J4yWtp9kluon5Y3U-45" value="" style="endArrow=classic;html=1;rounded=0;" edge="1" parent="1">
          <mxGeometry width="50" height="50" relative="1" as="geometry">
            <mxPoint x="572" y="229.66000000000003" as="sourcePoint" />
            <mxPoint x="612" y="229.66000000000003" as="targetPoint" />
          </mxGeometry>
        </mxCell>
        <mxCell id="bG9_J4yWtp9kluon5Y3U-46" value="" style="group" vertex="1" connectable="0" parent="1">
          <mxGeometry x="610" y="200" width="90" height="60" as="geometry" />
        </mxCell>
        <mxCell id="bG9_J4yWtp9kluon5Y3U-47" value="" style="rounded=0;whiteSpace=wrap;html=1;" vertex="1" parent="bG9_J4yWtp9kluon5Y3U-46">
          <mxGeometry width="90" height="60" as="geometry" />
        </mxCell>
        <mxCell id="bG9_J4yWtp9kluon5Y3U-48" value="&lt;h6&gt;&lt;font face=&quot;Tahoma&quot;&gt;&lt;span style=&quot;font-size: 6px; font-weight: normal;&quot;&gt;Сохранить новое оборудование&lt;/span&gt;&lt;/font&gt;&lt;/h6&gt;" style="text;html=1;align=center;verticalAlign=middle;whiteSpace=wrap;rounded=0;" vertex="1" parent="bG9_J4yWtp9kluon5Y3U-46">
          <mxGeometry x="5" width="80" height="50" as="geometry" />
        </mxCell>
        <mxCell id="bG9_J4yWtp9kluon5Y3U-49" value="1.4" style="rounded=0;whiteSpace=wrap;html=1;fontSize=8;align=left;" vertex="1" parent="bG9_J4yWtp9kluon5Y3U-46">
          <mxGeometry y="50" width="45" height="10" as="geometry" />
        </mxCell>
        <mxCell id="bG9_J4yWtp9kluon5Y3U-50" value="" style="rounded=0;whiteSpace=wrap;html=1;" vertex="1" parent="bG9_J4yWtp9kluon5Y3U-46">
          <mxGeometry x="45" y="50" width="45" height="10" as="geometry" />
        </mxCell>
        <mxCell id="bG9_J4yWtp9kluon5Y3U-51" value="" style="endArrow=classic;html=1;rounded=0;" edge="1" parent="1">
          <mxGeometry width="50" height="50" relative="1" as="geometry">
            <mxPoint x="700" y="229.66000000000003" as="sourcePoint" />
            <mxPoint x="740" y="229.66000000000003" as="targetPoint" />
          </mxGeometry>
        </mxCell>
        <mxCell id="bG9_J4yWtp9kluon5Y3U-52" value="" style="group" vertex="1" connectable="0" parent="1">
          <mxGeometry x="740" y="200" width="90" height="60" as="geometry" />
        </mxCell>
        <mxCell id="bG9_J4yWtp9kluon5Y3U-53" value="" style="rounded=0;whiteSpace=wrap;html=1;" vertex="1" parent="bG9_J4yWtp9kluon5Y3U-52">
          <mxGeometry width="90" height="60" as="geometry" />
        </mxCell>
        <mxCell id="bG9_J4yWtp9kluon5Y3U-54" value="&lt;h6&gt;&lt;font face=&quot;Tahoma&quot;&gt;&lt;span style=&quot;font-size: 6px; font-weight: normal;&quot;&gt;Перенаправить пользователя на страницу оборудования кабинета&lt;/span&gt;&lt;/font&gt;&lt;/h6&gt;" style="text;html=1;align=center;verticalAlign=middle;whiteSpace=wrap;rounded=0;" vertex="1" parent="bG9_J4yWtp9kluon5Y3U-52">
          <mxGeometry x="5" width="80" height="50" as="geometry" />
        </mxCell>
        <mxCell id="bG9_J4yWtp9kluon5Y3U-55" value="1.5" style="rounded=0;whiteSpace=wrap;html=1;fontSize=8;align=left;" vertex="1" parent="bG9_J4yWtp9kluon5Y3U-52">
          <mxGeometry y="50" width="45" height="10" as="geometry" />
        </mxCell>
        <mxCell id="bG9_J4yWtp9kluon5Y3U-56" value="" style="rounded=0;whiteSpace=wrap;html=1;" vertex="1" parent="bG9_J4yWtp9kluon5Y3U-52">
          <mxGeometry x="45" y="50" width="45" height="10" as="geometry" />
        </mxCell>
      </root>
    </mxGraphModel>
  </diagram>
</mxfile>
